<?xml version="1.0" encoding="UTF-8"?>
<svg width="10px" height="7px" viewBox="0 0 10 7" version="1.1" xmlns="http://www.w3.org/2000/svg" xmlns:xlink="http://www.w3.org/1999/xlink">
    <!-- Generator: Sketch 52.6 (67491) - http://www.bohemiancoding.com/sketch -->
    <title>chevron-down-outline</title>
    <desc>Created with Sketch.</desc>
    <g id="Designskisser" stroke="none" stroke-width="1" fill="none" fill-rule="evenodd">
        <g id="Föreställning-utfälld" transform="translate(-182.000000, -6087.000000)" fill="#000000">
            <g id="chevron-down-outline" transform="translate(175.000000, 6078.000000)">
                <rect id="Rectangle" opacity="0" x="0" y="0" width="24" height="24"></rect>
                <path d="M12,15.5 C11.734197,15.5015368 11.4787188,15.3971865 11.29,15.21 L7.29,11.21 C7.03634142,10.9563414 6.93727646,10.586626 7.03012194,10.240122 C7.12296742,9.8936179 7.3936179,9.62296742 7.74012195,9.53012194 C8.08662601,9.43727646 8.45634143,9.53634142 8.71,9.79 L12,13.1 L15.3,9.92 C15.5507611,9.64116709 15.936448,9.52606783 16.2990098,9.62186882 C16.6615717,9.7176698 16.9400601,10.0082664 17.0203532,10.374575 C17.1006463,10.7408835 16.9692464,11.1213257 16.68,11.36 L12.68,15.22 C12.4971249,15.3963151 12.254003,15.4964241 12,15.5 Z" id="Path"></path>
            </g>
        </g>
    </g>
</svg>