<svg xmlns="http://www.w3.org/2000/svg" width="16" height="16" viewBox="0 0 16 16">
  <g id="Artboard" stroke="none" stroke-width="1" fill="none" fill-rule="evenodd">
    <path d="M0,8.945758 C0,8.8901249 0.00727609417,8.79555004 0.0218285008,8.6620306 L0.583912396,4.68428373 L0.572998146,8.9123783 C0.572998146,9.3463165 0.603012034,9.70421741 0.663040711,9.98609179 C0.723069389,10.2679662 0.800377889,10.4904952 0.894968532,10.6536857 C0.989559175,10.8168761 1.13871911,11.0171523 1.3424528,11.2545202 C1.17510012,11.0950386 1.05231603,10.9772836 0.974096848,10.9012517 C0.895877662,10.8252198 0.79219332,10.7167369 0.663040711,10.5757997 C0.533888103,10.4348625 0.439298878,10.314326 0.379270201,10.2141864 C0.319241524,10.1140468 0.254666188,9.99443741 0.185542257,9.85535466 C0.116418325,9.71627191 0.0682142014,9.57255522 0.040928439,9.42420028 C0.0136426766,9.27584534 0,9.11636618 0,8.945758 Z M0.763997527,9.32962448 L0.763997527,4 L2.61942009,4 L2.61942009,9.55771905 C2.61578199,9.75799822 2.68217635,9.92674943 2.81860516,10.0639777 C2.95503398,10.2012061 3.11965561,10.2957809 3.31247499,10.3477051 C3.50529438,10.3996294 3.71630111,10.4255911 3.94550152,10.4255911 C4.09466368,10.4255911 4.23745703,10.4144646 4.37388584,10.3922114 C4.51031466,10.3699582 4.65401752,10.3300884 4.80499874,10.2726008 C4.95597995,10.2151133 5.0833116,10.1233201 5.1869975,9.99721836 C5.2906834,9.87111666 5.35343971,9.71720072 5.37526832,9.53546592 L5.88278096,5.37969402 L7.79277478,5.37969402 L7.24706226,9.50208623 C7.13791921,10.3217473 6.78411913,10.9429742 6.18565141,11.3657858 C5.58718369,11.7885974 4.84411257,12 3.95641577,12 C3.44708154,12 2.98777809,11.9295325 2.57849166,11.7885953 C2.16920522,11.6476581 1.83359538,11.4547996 1.57165206,11.2100139 C1.30970874,10.9652283 1.10961615,10.6824309 0.971368285,10.3616134 C0.833120422,10.0407958 0.763997527,9.69680295 0.763997527,9.32962448 Z M2.78313385,9.41307371 L2.78313385,8.99026426 C3.12875351,9.15716356 3.42343532,9.24061196 3.66718813,9.24061196 C3.97642677,9.24061196 4.21744739,9.17478045 4.39025722,9.04311544 C4.56306705,8.91145043 4.66947993,8.67315889 4.70949904,8.32823366 L5.11878343,4 L6.9087205,4 L7.77094628,5.17385257 L5.70269583,5.17385257 L5.20064031,9.37969402 C5.1824498,9.52804896 5.14152177,9.65600317 5.077855,9.7635605 C5.01418822,9.87111783 4.94142727,9.95456623 4.85956999,10.0139082 C4.7777127,10.0732502 4.67857592,10.1196104 4.56215666,10.1529903 C4.44573741,10.1863701 4.34114356,10.2076958 4.24837197,10.216968 C4.15560037,10.2262402 4.05100652,10.2308762 3.93458727,10.2308762 C3.60352002,10.2308762 3.32884746,10.1641175 3.11056136,10.0305981 C2.89227526,9.89707861 2.78313385,9.69123922 2.78313385,9.41307371 Z M2.80496235,7.81641168 L2.80496235,4.06675939 L3.59078838,5.20723227 L2.80496235,7.81641168 Z M8.27271072,11.8609179 L8.27271072,5.11821975 L9.03670825,4 L10.9576163,4 L10.2318187,5.11821975 L10.2318187,7.77190542 C10.2318187,7.8868805 10.2791133,7.90913341 10.3737039,7.83866481 L15.8963146,4.12239221 L15.8963146,5.96940195 L12.8130389,8.10013908 C12.7730198,8.12981007 12.7657437,8.16504384 12.7912104,8.20584145 L14.1227489,10.1641168 L13.3041802,11.8609179 L11.4596718,9.02364395 C11.4378432,8.98655522 11.3978247,8.9828464 11.3396151,9.01251739 L10.2754757,9.71905424 C10.2463709,9.73388974 10.2318187,9.76356028 10.2318187,9.80806676 L10.2318187,11.8609179 L8.27271072,11.8609179 Z M10.4119038,11.5994437 L10.4119038,9.90264256 L11.0231018,9.43532684 L11.0231018,10.5479833 L10.4119038,11.5994437 Z M10.4119038,7.59944367 L10.4119038,5.16272601 L11.0231018,4.20584145 L11.0231018,6.08623088 C11.0231018,6.08993975 11.0240113,6.09364857 11.0258304,6.09735744 C11.0276494,6.10106631 11.032197,6.10662954 11.0394732,6.11404729 C11.0467494,6.12146503 11.0558445,6.11961063 11.0667588,6.10848401 L14.3192054,4 L15.7544294,4 L10.4119038,7.59944367 Z M13.0258668,8.19471488 L14.2428057,7.32684284 L16,10.2086231 L15.2796595,11.8609179 L13.5279223,11.8609179 L14.3192054,10.2308762 C14.3446722,10.1826609 14.3483102,10.1455727 14.3301197,10.1196106 L13.0258668,8.19471488 Z"></path>
  </g>
</svg>